<?xml version="1.0" encoding="utf-8"?>
<!-- Generator: Adobe Illustrator 16.0.0, SVG Export Plug-In . SVG Version: 6.00 Build 0)  -->
<!DOCTYPE svg PUBLIC "-//W3C//DTD SVG 1.1//EN" "http://www.w3.org/Graphics/SVG/1.1/DTD/svg11.dtd">
<svg version="1.1" id="Layer_1" xmlns="http://www.w3.org/2000/svg" xmlns:xlink="http://www.w3.org/1999/xlink" x="0px" y="0px"
	 width="190px" height="190px" viewBox="0 0 190 190" enable-background="new 0 0 190 190" xml:space="preserve">
<g>
	<rect x="645" y="51.19" fill="#00AEEF" width="50" height="49.996"/>
	<rect x="645" y="-8.812" fill="#9E9E9E" width="50" height="49.998"/>
	<rect x="645" y="-68.812" fill="#03A9F4" width="50" height="49.996"/>
	<rect x="705.002" y="51.19" fill="#9E9E9E" width="49.994" height="49.996"/>
	<rect x="705.002" y="-8.812" fill="#9E9E9E" width="49.994" height="49.998"/>
	<rect x="765.002" y="51.19" fill="#00AEEF" width="49.998" height="49.996"/>
	<rect x="765.002" y="-8.812" fill="#9E9E9E" width="49.998" height="49.998"/>
	<rect x="765.002" y="-68.812" fill="#03A9F4" width="49.998" height="49.996"/>
</g>
<rect x="10" y="-100" fill="#00AEEF" width="50" height="50"/>
<rect x="10" y="-160" fill="#9E9E9E" width="50" height="50"/>
<rect x="10" y="-220" fill="#03A9F4" width="50" height="50"/>
<rect x="70" y="-100" fill="#9E9E9E" width="50" height="50"/>
<rect x="70" y="-160" fill="#9E9E9E" width="50" height="50"/>
<rect x="130" y="-100" fill="#00AEEF" width="50" height="50"/>
<rect x="130" y="-160" fill="#9E9E9E" width="50" height="50"/>
<rect x="130" y="-220" fill="#03A9F4" width="50" height="50"/>
<rect x="10" y="130" fill="#616161" width="50" height="50"/>
<rect x="10" y="70" fill="#616161" width="50" height="50"/>
<rect x="10" y="10" fill="#616161" width="50" height="50"/>
<rect x="70" y="130" fill="#616161" width="50" height="50"/>
<rect x="70" y="70" fill="#616161" width="50" height="50"/>
<rect x="130" y="130" fill="#616161" width="50" height="50"/>
<rect x="130" y="70" fill="#616161" width="50" height="50"/>
<rect x="130" y="10" fill="#616161" width="50" height="50"/>
<rect x="230" y="121.187" fill="none" width="1000" height="148.812"/>
<text transform="matrix(1 0 0 1 643.0405 149.0273)" fill="#00AEEF" font-family="'SourceSansPro-Black'" font-size="40" letter-spacing="2">UBITECH</text>
</svg>
